<svg width="300" height="76" viewBox="0 0 300 76" fill="none" xmlns="http://www.w3.org/2000/svg">
<g clip-path="url(#clip0_173_36037)">
<path fill-rule="evenodd" clip-rule="evenodd" d="M46.1436 73.4904C51.1748 72.2326 59.6656 67.2264 61.055 64.8824L61.3657 42.997C61.3657 42.997 63.9106 39.951 62.9791 39.0183C62.0483 38.0856 54.7866 34.8525 54.7866 34.8525C54.7866 34.8525 50.9383 37.5571 50.0692 37.6813C49.2001 37.8054 35.3588 37.9296 35.1416 37.9296C34.9245 37.9296 36.1 42.2208 36.7207 42.6557C37.3415 43.0912 50.4997 42.7493 50.4997 42.7493L50.4261 57.6993C50.4261 64.3664 50.7418 69.2348 46.1436 73.4904Z" fill="#0A2540"/>
<path fill-rule="evenodd" clip-rule="evenodd" d="M58.8218 19.4329L58.946 10.9147C58.946 10.9147 51.3112 0.780553 33.7464 1.40196C14.5375 2.16688 1.0923 14.821 0.08719 35.181C-0.544828 47.9923 2.22407 58.8776 9.54126 66.2279C15.5607 72.2748 24.1831 75.8055 33.6621 75.4174C42.8748 75.0393 47.7562 69.3543 48.4874 66.8642C44.384 68.8196 39.4676 70.0711 34.5356 69.937C16.1697 69.4385 10.4565 51.2553 10.9619 36.936C11.4891 21.9866 19.1694 5.6801 36.6313 6.44002C44.4033 6.7788 51.2276 11.0613 55.4702 19.4329H58.8218Z" fill="#0A2540"/>
<path fill-rule="evenodd" clip-rule="evenodd" d="M188.048 17.0701V9.48465C183.667 3.83018 175.776 1.22911 169.431 0.893446C157.986 0.28888 146.711 5.45109 145.67 18.3548C144.955 27.2111 150.421 33.2917 159.559 37.6503C169.986 42.6241 179.545 46.79 181.779 52.7589C184.014 58.7278 179.669 69.3598 168.807 70.4791C159.89 71.4299 149.401 66.8592 148.697 57.7951L145.532 57.5461L144.973 65.753C144.973 65.753 151.446 74.3149 164.915 74.9993C178.384 75.6831 189.476 69.0491 190.966 59.9713C192.455 50.8934 190.903 41.8779 176.441 34.4173C168.778 30.4636 153.677 25.758 154.637 15.2383C155.413 6.71949 164.629 4.06789 171.978 5.16597C178.719 6.1742 184.138 11.9248 184.821 17.1949L188.048 17.0701Z" fill="#0A2540"/>
<path fill-rule="evenodd" clip-rule="evenodd" d="M203.69 66.1889C203.69 66.1889 204.155 7.71319 204.155 6.71868C204.155 5.72355 203.193 3.82749 203.193 3.82749L205.49 1.21582C205.49 1.21582 214.366 5.69298 214.552 6.00368C214.738 6.31439 214.49 6.81164 214.366 7.74438C214.241 8.67712 213.745 23.6609 213.993 31.3087C214.241 38.9566 214.117 72.282 214.117 72.282C214.117 72.282 210.89 75.0796 210.145 75.2044C209.4 75.3285 209.027 75.5151 208.593 75.1426C208.159 74.7689 203.131 69.2354 203.131 69.2354C203.131 69.2354 203.845 66.562 203.69 66.1889Z" fill="#0A2540"/>
<path fill-rule="evenodd" clip-rule="evenodd" d="M229.201 74.4583L229.263 6.31456L227.711 4.13837C227.711 4.13837 227.463 1.96217 228.022 1.96217C228.58 1.96217 241.243 2.95668 241.243 2.95668L242.16 7.0963L266.226 55.4472L264.973 47.9822L287.38 5.01869C287.38 5.01869 286.707 3.56312 286.397 3.31418C286.086 3.06524 287.852 0.160953 288.349 0.533426C288.737 0.824791 296.075 4.05039 298.976 5.43422C300.57 6.19414 299.988 6.16544 299.342 7.4014C299.061 7.9392 298.925 8.65671 298.78 9.3611C298.407 11.1642 299.083 70.728 299.083 70.728C299.083 70.728 295.149 75.2357 294.155 75.0492C293.162 74.862 287.829 69.6967 287.394 68.8887C287.394 68.8887 288.322 65.7529 288.319 64.0191L288.23 14.5214L262.47 64.4477C262.47 64.4477 260.546 64.5101 259.925 64.3236C259.305 64.137 234.456 14.4696 234.456 14.4696L234.539 72.2204C234.539 72.2204 231.436 74.5825 229.201 74.4583Z" fill="#0A2540"/>
<path fill-rule="evenodd" clip-rule="evenodd" d="M125.036 26.1711C125.719 21.9927 125.951 15.418 123.4 10.4212C102.077 -4.16268 76.6357 9.1228 71.6562 29.2463C74.0196 24.2738 81.2302 18.1351 89.8364 15.1709C100.555 11.4787 115.414 13.0041 125.036 26.1711Z" fill="#294A8F"/>
<path fill-rule="evenodd" clip-rule="evenodd" d="M104.322 61.4714C107.593 64.1611 113.161 67.6637 118.763 67.9669C142.084 56.8532 143.373 28.1809 128.472 13.7681C131.585 18.3089 133.272 27.6269 131.513 36.5575C129.322 47.6812 120.541 59.7644 104.322 61.4714Z" fill="#294A8F"/>
<path fill-rule="evenodd" clip-rule="evenodd" d="M83.2311 26.6597C79.283 28.1895 73.4988 31.3228 70.4847 36.0551C68.7252 61.8281 93.0751 77.0215 112.945 71.1106C107.461 71.5948 98.5143 68.4921 91.5964 62.5775C82.979 55.2097 76.7605 41.6285 83.2311 26.6597Z" fill="#294A8F"/>
</g>
<defs>
<clipPath id="clip0_173_36037">
<rect width="300" height="75" fill="white" transform="translate(0 0.5)"/>
</clipPath>
</defs>
</svg>
