<?xml version="1.0" standalone="no"?>
<!DOCTYPE svg PUBLIC "-//W3C//DTD SVG 20010904//EN"
 "http://www.w3.org/TR/2001/REC-SVG-20010904/DTD/svg10.dtd">
<svg version="1.0" xmlns="http://www.w3.org/2000/svg"
 width="500.000000pt" height="500.000000pt" viewBox="0 0 500.000000 500.000000"
 preserveAspectRatio="xMidYMid meet">

<g transform="translate(0.000000,500.000000) scale(0.100000,-0.100000)"
fill="#000000" stroke="none">
<path d="M2503 4368 c-14 -17 -1343 -2246 -1343 -2251 0 -8 224 -28 340 -30
l114 -2 403 785 c222 432 487 948 589 1148 l185 362 -139 0 c-100 0 -142 -4
-149 -12z"/>
<path d="M3080 3866 l-145 -11 265 -6 c164 -4 306 -13 374 -24 396 -60 664
-200 754 -393 24 -50 27 -69 27 -157 -1 -80 -5 -111 -23 -157 -94 -234 -383
-490 -779 -687 -435 -216 -895 -352 -1448 -427 -187 -25 -616 -30 -806 -10
-170 19 -364 62 -478 108 -288 114 -432 306 -392 523 35 191 228 418 516 608
115 75 119 81 20 27 -323 -173 -615 -422 -745 -635 -155 -255 -130 -499 69
-678 174 -157 459 -262 846 -313 161 -21 550 -29 735 -15 339 26 575 64 940
151 806 192 1462 520 1830 915 174 187 248 350 237 528 -4 76 -10 99 -42 165
-178 362 -867 554 -1755 488z"/>
<path d="M2868 3843 c12 -2 32 -2 45 0 12 2 2 4 -23 4 -25 0 -35 -2 -22 -4z"/>
<path d="M2464 3560 c-40 -74 -86 -163 -103 -197 l-31 -62 0 -571 c0 -536 1
-570 18 -570 9 0 87 16 172 35 85 19 155 35 155 35 1 0 -117 1232 -132 1385
l-8 80 -71 -135z"/>
<path d="M2727 3052 c2 -15 14 -117 27 -227 l24 -200 82 -157 c46 -87 87 -158
91 -158 5 0 66 21 134 46 l126 46 -24 32 c-13 17 -119 167 -236 333 -117 167
-216 305 -220 307 -4 3 -6 -7 -4 -22z"/>
<path d="M3490 1859 c-41 -16 -117 -43 -167 -60 -51 -17 -93 -32 -93 -34 0 -3
88 -173 196 -380 l196 -375 280 0 c221 0 279 3 275 13 -5 14 -583 835 -601
854 -8 9 -28 5 -86 -18z"/>
<path d="M2656 1619 c-38 -10 -127 -28 -198 -40 l-128 -22 0 -274 0 -273 230
0 230 0 0 28 c-1 48 -56 591 -61 595 -2 2 -35 -4 -73 -14z"/>
<path d="M670 1303 c-91 -152 -166 -280 -168 -284 -2 -5 124 -9 280 -9 l283 0
127 250 c70 138 121 250 115 250 -41 0 -285 33 -367 50 -54 11 -100 20 -102
20 -1 0 -77 -125 -168 -277z"/>
</g>
</svg>
